<?xml version="1.0" standalone="no"?>
<!DOCTYPE svg PUBLIC "-//W3C//DTD SVG 20010904//EN"
 "http://www.w3.org/TR/2001/REC-SVG-20010904/DTD/svg10.dtd">
<svg version="1.0" xmlns="http://www.w3.org/2000/svg"
 width="166.000000pt" height="166.000000pt" viewBox="0 0 166.000000 166.000000"
 preserveAspectRatio="xMidYMid meet">
<metadata>
Created by potrace 1.14, written by Peter Selinger 2001-2017
</metadata>
<g transform="translate(0.000000,166.000000) scale(0.100000,-0.100000)"
fill="#000000" stroke="none">
<path d="M779 1519 c-19 -19 -25 -55 -11 -76 4 -6 19 -16 34 -22 33 -12 66 10
73 49 9 53 -58 87 -96 49z"/>
<path d="M329 1336 c-45 -33 -24 -106 31 -106 52 0 78 52 47 94 -16 22 -57 28
-78 12z"/>
<path d="M1237 1332 c-36 -43 -23 -95 26 -104 58 -11 96 77 46 108 -23 14 -58
12 -72 -4z"/>
<path d="M700 1286 c-163 -45 -288 -167 -332 -324 -66 -240 52 -480 283 -573
72 -29 215 -35 291 -13 155 46 279 164 324 308 54 172 1 374 -131 493 -116
105 -291 149 -435 109z"/>
<path d="M137 878 c-27 -22 -31 -60 -7 -86 25 -27 61 -28 83 -4 48 53 -19 133
-76 90z"/>
<path d="M1421 869 c-35 -37 -7 -99 43 -99 33 1 56 24 56 57 0 57 -61 83 -99
42z"/>
<path d="M316 408 c-28 -40 -12 -81 36 -93 51 -13 90 61 52 99 -23 24 -70 20
-88 -6z"/>
<path d="M1226 408 c-33 -52 21 -116 74 -88 39 21 43 78 6 102 -23 16 -66 8
-80 -14z"/>
<path d="M776 224 c-31 -30 -14 -85 30 -98 32 -10 75 29 70 61 -3 13 -10 31
-17 39 -15 19 -64 18 -83 -2z"/>
</g>
</svg>
